<?xml version="1.0" encoding="iso-8859-1"?>
<!-- Generator: Adobe Illustrator 16.0.0, SVG Export Plug-In . SVG Version: 6.00 Build 0)  -->
<!DOCTYPE svg PUBLIC "-//W3C//DTD SVG 1.1//EN" "http://www.w3.org/Graphics/SVG/1.1/DTD/svg11.dtd">
<svg xmlns="http://www.w3.org/2000/svg" xmlns:xlink="http://www.w3.org/1999/xlink" version="1.1" id="Capa_1" x="0px" y="0px" width="200px" height="200px" viewBox="0 0 781.465 781.465" style="enable-background:new 0 0 781.465 781.465;" xml:space="preserve">
<g>
	<polygon points="377.169,433.887 408.721,433.887 408.721,424.98 377.169,424.98 377.169,397.26 411.324,397.26 411.324,388.233    366.408,388.233 366.408,471.621 377.169,471.621  " fill="#581414"/>
	<path d="M459.195,472.982c21.283,0,38.723-15.221,38.723-43.92c0-24.752-14.717-42.193-37.479-42.193   c-22.273,0-38.723,17.322-38.723,43.799C421.715,455.902,437.18,472.982,459.195,472.982z M459.941,395.654   c17.938,0,26.602,17.322,26.602,33.902c0,18.924-9.656,34.641-26.73,34.641c-16.943,0-26.596-15.959-26.596-33.77   C433.215,412.111,442.119,395.654,459.941,395.654z" fill="#581414"/>
	<path d="M522.641,435.488h10.146c9.771,0.375,14.23,4.713,16.703,16.211c2.352,10.396,4.209,17.57,5.564,19.924h11.139   c-1.732-3.223-3.709-11.26-6.434-22.891c-1.982-8.662-5.811-14.596-12.246-16.826v-0.373c8.785-2.961,15.701-10.266,15.701-21.277   c0-6.438-2.35-12.123-6.553-15.836c-5.199-4.706-12.619-6.801-24.117-6.801c-7.426,0-15.223,0.615-20.672,1.723v82.281h10.766   L522.641,435.488L522.641,435.488z M522.641,396.896c1.73-0.494,5.443-0.998,10.639-0.998c11.396,0.129,19.178,4.834,19.178,15.592   c0,9.525-7.289,15.842-18.803,15.842h-11.014V396.896z" fill="#581414"/>
	<path d="M351.779,556.582h10.148c9.775,0.373,14.23,4.705,16.702,16.205c2.354,10.4,4.205,17.572,5.564,19.926h11.144   c-1.742-3.219-3.718-11.256-6.438-22.895c-1.977-8.662-5.822-14.594-12.247-16.82v-0.373c8.785-2.967,15.705-10.271,15.705-21.285   c0-6.436-2.353-12.123-6.556-15.834c-5.193-4.701-12.619-6.797-24.116-6.797c-7.426,0-15.222,0.611-20.667,1.723v82.281h10.761   V556.582L351.779,556.582z M351.779,517.988c1.737-0.504,5.444-1,10.645-1c11.386,0.135,19.172,4.83,19.172,15.6   c0,9.516-7.29,15.832-18.796,15.832h-11.021V517.988L351.779,517.988z" fill="#581414"/>
	<polygon points="418.332,553.613 450.748,553.613 450.748,544.709 418.332,544.709 418.332,518.35 452.607,518.35 452.607,509.322    407.572,509.322 407.572,592.713 454.461,592.713 454.461,583.684 418.332,583.684  " fill="#581414"/>
	<path d="M468.43,509.322v83.393h10.148V557.09c0-13.865-0.252-23.895-0.869-34.398l0.373-0.135   c4.207,9.041,9.777,18.564,15.584,27.844l26.479,42.314h10.896v-83.393h-10.146v34.893c0,12.994,0.24,23.139,1.23,34.264   l-0.24,0.135c-3.971-8.547-8.785-17.322-14.973-27.1l-26.732-42.189L468.43,509.322L468.43,509.322z" fill="#581414"/>
	<polygon points="540.297,518.479 565.658,518.479 565.658,592.713 576.551,592.713 576.551,518.479 602.029,518.479    602.029,509.322 540.297,509.322  " fill="#581414"/>
	<path d="M734.967,256.802l46.498-59.56l-46.498-59.559H181.77V46.498L122.211,0L62.652,46.498v91.186H0V256.8h62.652v524.665   h119.117V256.801h127.494v68.683h-70.497v353.983h446.978V325.484h-61.498v-68.682H734.967z M651.246,644.969H277.765V362.982   h373.481V644.969z M579.25,325.484H354.261v-68.683l224.989,0.001V325.484z" fill="#581414"/>
</g>
<g>
</g>
<g>
</g>
<g>
</g>
<g>
</g>
<g>
</g>
<g>
</g>
<g>
</g>
<g>
</g>
<g>
</g>
<g>
</g>
<g>
</g>
<g>
</g>
<g>
</g>
<g>
</g>
<g>
</g>
</svg>
