<?xml version="1.0" encoding="utf-8"?>
<!-- Generator: Adobe Illustrator 19.2.1, SVG Export Plug-In . SVG Version: 6.00 Build 0)  -->
<svg version="1.1" id="Ebene_1" xmlns="http://www.w3.org/2000/svg" xmlns:xlink="http://www.w3.org/1999/xlink" x="0px" y="0px"
	 viewBox="0 0 22.7 22.7" style="enable-background:new 0 0 22.7 22.7;" xml:space="preserve">
<style type="text/css">
	.st0{clip-path:url(#SVGID_2_);fill:none;stroke:#000000;stroke-width:0.25;}
	.st1{clip-path:url(#SVGID_2_);fill:none;stroke:#000000;stroke-width:0.7973;}
	.st2{fill:none;stroke:#FFFFFF;stroke-width:0.2504;}
	.st3{fill:#FFFFFF;}
	.st4{fill:none;stroke:#000000;stroke-width:0.7036;stroke-linecap:round;stroke-linejoin:round;stroke-miterlimit:3.8637;}
</style>
<g>
	<g>
		<defs>
			<rect id="SVGID_1_" width="22.7" height="22.7"/>
		</defs>
		<clipPath id="SVGID_2_">
			<use xlink:href="#SVGID_1_"  style="overflow:visible;"/>
		</clipPath>
		<path class="st0" d="M2.8,0.1c-0.1,0-2.7,0-2.7,2.7v17c0,0.1,0,2.7,2.7,2.7h17c0.1,0,2.7,0,2.7-2.7v-17c0-0.1,0-2.7-2.7-2.7H2.8
			L2.8,0.1L2.8,0.1z"/>
		<polyline class="st1" points="9.2,22.6 9.2,12.2 13.5,12.2 13.5,22.6 		"/>
	</g>
	<path d="M12.2,8.2c0,0.3-0.3,0.6-0.6,0.6h-0.4c-0.3,0-0.6-0.3-0.6-0.6V3.6c0-0.3,0.3-0.6,0.6-0.6h0.4c0.3,0,0.6,0.3,0.6,0.6V8.2
		L12.2,8.2z"/>
	<path class="st2" d="M12.2,8.2c0,0.3-0.3,0.6-0.6,0.6h-0.4c-0.3,0-0.6-0.3-0.6-0.6V3.6c0-0.3,0.3-0.6,0.6-0.6h0.4
		c0.3,0,0.6,0.3,0.6,0.6V8.2L12.2,8.2z"/>
	<path d="M12.2,5.7c0,0.2-0.3,0.3-0.6,0.3h-0.4c-0.3,0-0.6-0.1-0.6-0.3V3.3c0-0.2,0.3-0.3,0.6-0.3h0.4c0.3,0,0.6,0.1,0.6,0.3V5.7
		L12.2,5.7z"/>
	<path class="st2" d="M12.2,5.7c0,0.2-0.3,0.3-0.6,0.3h-0.4c-0.3,0-0.6-0.1-0.6-0.3V3.3c0-0.2,0.3-0.3,0.6-0.3h0.4
		c0.3,0,0.6,0.1,0.6,0.3V5.7L12.2,5.7z"/>
	<path class="st3" d="M2,8.7h8.5h1.7h8.5c0,0-0.4,3.4-4,3.5h-4.6h-1.7H5.9C2.3,12.1,2,8.7,2,8.7L2,8.7z"/>
	<path class="st4" d="M2,8.7h8.5h1.7h8.5c0,0-0.4,3.4-4,3.5h-4.6h-1.7H5.9C2.3,12.1,2,8.7,2,8.7L2,8.7z"/>
	<path d="M10.5,8.2c0,0.1-0.3,0.2-0.6,0.2H9.5c-0.3,0-0.6-0.1-0.6-0.2V7c0-0.1,0.3-0.2,0.6-0.2h0.4c0.3,0,0.6,0.1,0.6,0.2V8.2
		L10.5,8.2z"/>
	<path class="st2" d="M10.5,8.2c0,0.1-0.3,0.2-0.6,0.2H9.5c-0.3,0-0.6-0.1-0.6-0.2V7c0-0.1,0.3-0.2,0.6-0.2h0.4
		c0.3,0,0.6,0.1,0.6,0.2V8.2L10.5,8.2z"/>
	<path d="M13.8,8.2c0,0.1-0.3,0.2-0.6,0.2h-0.4c-0.3,0-0.6-0.1-0.6-0.2V7c0-0.1,0.3-0.2,0.6-0.2h0.4c0.3,0,0.6,0.1,0.6,0.2V8.2
		L13.8,8.2z"/>
	<path class="st2" d="M13.8,8.2c0,0.1-0.3,0.2-0.6,0.2h-0.4c-0.3,0-0.6-0.1-0.6-0.2V7c0-0.1,0.3-0.2,0.6-0.2h0.4
		c0.3,0,0.6,0.1,0.6,0.2V8.2L13.8,8.2z"/>
	<path d="M8.2,7.2c0,0.1,0.1,0.1,0.1,0.1h0.9c0.1,0,0.1-0.1,0.1-0.1l0,0C9.4,7.1,9.3,7,9.3,7H8.4C8.3,7,8.2,7.1,8.2,7.2L8.2,7.2
		L8.2,7.2z"/>
	<path d="M13.4,7.2c0,0.1,0.1,0.1,0.1,0.1h0.9c0.1,0,0.1-0.1,0.1-0.1l0,0c0-0.1-0.1-0.1-0.1-0.1h-0.9C13.5,7,13.4,7.1,13.4,7.2
		L13.4,7.2L13.4,7.2z"/>
</g>
</svg>
