<?xml version="1.0" encoding="utf-8"?>
<!-- Generator: Adobe Illustrator 19.2.1, SVG Export Plug-In . SVG Version: 6.00 Build 0)  -->
<svg version="1.1" id="Ebene_1" xmlns="http://www.w3.org/2000/svg" xmlns:xlink="http://www.w3.org/1999/xlink" x="0px" y="0px"
	 viewBox="0 0 22.7 22.7" style="enable-background:new 0 0 22.7 22.7;" xml:space="preserve">
<style type="text/css">
	.st0{clip-path:url(#SVGID_2_);fill:none;stroke:#000000;stroke-width:0.25;}
	.st1{fill:none;stroke:#000000;stroke-width:0.7105;stroke-linecap:round;stroke-linejoin:round;stroke-miterlimit:3.8637;}
	.st2{fill:none;stroke:#000000;stroke-width:0.3808;stroke-linecap:round;stroke-miterlimit:3.8637;}
	.st3{fill:#FFFFFF;}
	.st4{fill:none;stroke:#000000;stroke-width:0.3082;stroke-miterlimit:3.8637;}
	.st5{fill:none;stroke:#000000;stroke-width:0.3039;stroke-miterlimit:3.8637;}
	.st6{fill:none;stroke:#000000;stroke-width:0.336;stroke-linejoin:round;stroke-miterlimit:3.8637;}
</style>
<g>
	<g>
		<defs>
			<rect id="SVGID_1_" width="22.7" height="22.7"/>
		</defs>
		<clipPath id="SVGID_2_">
			<use xlink:href="#SVGID_1_"  style="overflow:visible;"/>
		</clipPath>
		<path class="st0" d="M2.8,0.1c-0.1,0-2.7,0-2.7,2.7v17c0,0.1,0,2.7,2.7,2.7h17c0.1,0,2.7,0,2.7-2.7v-17c0-0.1,0-2.7-2.7-2.7H2.8
			L2.8,0.1L2.8,0.1z"/>
	</g>
	<polygon points="18.3,7.2 4.6,7.2 4.6,3.9 18.3,3.9 18.3,7.2 	"/>
	<polygon class="st1" points="19.6,16 2.9,16 4.9,7.3 17.9,7.3 19.6,16 	"/>
	<polyline points="19.8,15.9 19.8,18.6 2.8,18.6 2.8,15.9 	"/>
	<polyline class="st2" points="19.8,15.9 19.8,18.6 2.8,18.6 2.8,15.9 	"/>
	<path class="st3" d="M11.1,7.8C11.1,7.9,11,8,10.9,8H6.4C6.3,8,6.2,7.9,6.2,7.8V5.2C6.2,5.1,6.3,5,6.4,5h4.5c0.1,0,0.3,0.1,0.3,0.3
		V7.8L11.1,7.8z"/>
	<path class="st4" d="M11.1,7.8C11.1,7.9,11,8,10.9,8H6.4C6.3,8,6.2,7.9,6.2,7.8V5.2C6.2,5.1,6.3,5,6.4,5h4.5c0.1,0,0.3,0.1,0.3,0.3
		V7.8L11.1,7.8z"/>
	<path class="st3" d="M16.6,7.8c0,0.1-0.1,0.3-0.3,0.3h-4.2c-0.1,0-0.3-0.1-0.3-0.3V5.2C11.8,5.1,12,5,12.1,5h4.2
		c0.1,0,0.3,0.1,0.3,0.3V7.8L16.6,7.8z"/>
	<path class="st5" d="M16.6,7.8c0,0.1-0.1,0.3-0.3,0.3h-4.2c-0.1,0-0.3-0.1-0.3-0.3V5.2C11.8,5.1,12,5,12.1,5h4.2
		c0.1,0,0.3,0.1,0.3,0.3V7.8L16.6,7.8z"/>
	<path class="st3" d="M10.1,16.1c-1.8,0-6.4-0.1-7.8,1.2c-1.5,1.4-1.1-0.7-1.2,0c0,0,1-8,2.7-8c1.7,0,2.9,0.1,7.1,0.1H12
		c4.2,0,5-0.1,6.6-0.1c1.7,0,2.9,8,2.9,8c-0.1-0.7,0.3,1.4-1.2,0c-1.4-1.3-6.2-1.2-8.1-1.2H10.1L10.1,16.1z"/>
	<path class="st6" d="M10.1,16.1c-1.8,0-6.4-0.1-7.8,1.2c-1.5,1.4-1.1-0.7-1.2,0c0,0,1-8,2.7-8c1.7,0,2.9,0.1,7.1,0.1H12
		c4.2,0,5-0.1,6.6-0.1c1.7,0,2.9,8,2.9,8c-0.1-0.7,0.3,1.4-1.2,0c-1.4-1.3-6.2-1.2-8.1-1.2H10.1L10.1,16.1z"/>
</g>
</svg>
