<svg xmlns="http://www.w3.org/2000/svg" xmlns:xlink="http://www.w3.org/1999/xlink" viewBox="0 0 22.68 22.68"><defs><style>.cls-1{fill:none;}.cls-2{clip-path:url(#clip-path);}.cls-3{fill:#1d1d1b;}.cls-4{clip-path:url(#clip-path-2);}.cls-5{fill-rule:evenodd;}</style><clipPath id="clip-path"><rect class="cls-1" width="22.68" height="22.68"/></clipPath><clipPath id="clip-path-2"><rect class="cls-1" x="3.04" y="4.53" width="16.59" height="13.61"/></clipPath></defs><title>Icon_Versionen_VC_FB_FInal</title><g id="Rahmen"><g class="cls-2"><path class="cls-3" d="M19.84,22.68h-17A2.75,2.75,0,0,1,0,19.84v-17A2.75,2.75,0,0,1,2.83,0h17a2.75,2.75,0,0,1,2.83,2.83v17A2.75,2.75,0,0,1,19.84,22.68ZM2.83.25A2.51,2.51,0,0,0,.25,2.83v17a2.51,2.51,0,0,0,2.58,2.58h17a2.51,2.51,0,0,0,2.58-2.58v-17A2.51,2.51,0,0,0,19.84.25Z"/></g><g id="money.psd"><g class="cls-4"><g id="Forma_1" data-name="Forma 1"><path class="cls-5" d="M10.69,6.64C9.6,7,8.88,7.79,9.09,8.49s1.25,1,2.34.68S13.23,8,13,7.33,11.77,6.32,10.69,6.64Zm.55,1.88c-.7.21-1.35.1-1.45-.25s.38-.79,1.08-1,1.35-.1,1.45.25S11.94,8.32,11.24,8.53Zm8.4-.77L7.86,4.53,3,7.79l11.83,3.9ZM4.58,7.58,8,5.27l10.2,2.79-3.45,2.86ZM3.06,9.2v.72l11.82,3.91,4.74-3.89V9.05l-4.89,4Zm0,2.16v.72L14.88,16l4.74-3.89v-.89l-4.89,4Zm0,2.16v.72l11.82,3.91,4.74-3.89v-.89l-4.89,4Z"/></g></g></g></g></svg>